# Vectary OBJ Export units=mm
mtllib Project Name.mtl
o 000_Cylinder_1_-_baked
g Cylinder_1_-_baked
usemtl Cylinder material 1_079ba327-2d53-442f-98e4-5e2f90ea5eab
v -83.902 26.591 12.824
v -78.030 28.593 12.911
v -78.108 28.592 18.249
v -83.980 26.590 18.163
v -74.456 33.665 12.964
v -74.534 33.664 18.303
v -74.545 39.869 12.964
v -74.623 39.868 18.303
v -78.264 44.835 12.911
v -78.342 44.834 18.249
v -84.191 46.668 12.824
v -84.269 46.667 18.163
v -90.063 44.666 12.738
v -90.141 44.665 18.077
v -93.637 39.594 12.685
v -93.715 39.593 18.023
v -93.548 33.390 12.685
v -93.626 33.389 18.023
v -89.830 28.424 12.738
v -89.908 28.423 18.077
v -84.047 36.630 12.824
v -84.125 36.628 18.163
vn 0.01437 -0.99990 -0.00000
vn 0.59929 -0.80049 0.00860
vn 0.59929 -0.80049 0.00860
vn 0.01437 -0.99990 -0.00000
vn 0.59929 -0.80049 0.00860
vn 0.95530 -0.29532 0.01391
vn 0.95530 -0.29532 0.01391
vn 0.59929 -0.80049 0.00860
vn 0.95530 -0.29532 0.01391
vn 0.94642 0.32265 0.01391
vn 0.94642 0.32265 0.01391
vn 0.95530 -0.29532 0.01391
vn 0.94642 0.32265 0.01391
vn 0.57604 0.81738 0.00860
vn 0.57604 0.81738 0.00860
vn 0.94642 0.32265 0.01391
vn 0.57604 0.81738 0.00860
vn -0.01437 0.99990 0.00000
vn -0.01437 0.99990 0.00000
vn 0.57604 0.81738 0.00860
vn -0.01437 0.99990 0.00000
vn -0.59929 0.80049 -0.00860
vn -0.59929 0.80049 -0.00860
vn -0.01437 0.99990 0.00000
vn -0.59929 0.80049 -0.00860
vn -0.95530 0.29532 -0.01391
vn -0.95530 0.29532 -0.01391
vn -0.59929 0.80049 -0.00860
vn -0.95530 0.29532 -0.01391
vn -0.94642 -0.32265 -0.01391
vn -0.94642 -0.32265 -0.01391
vn -0.95530 0.29532 -0.01391
vn -0.94642 -0.32265 -0.01391
vn -0.57604 -0.81738 -0.00860
vn -0.57604 -0.81738 -0.00860
vn -0.94642 -0.32265 -0.01391
vn -0.57604 -0.81738 -0.00860
vn 0.01437 -0.99990 -0.00000
vn 0.01437 -0.99990 -0.00000
vn -0.57604 -0.81738 -0.00860
vn 0.01462 0.00021 -0.99989
vn 0.01462 0.00021 -0.99989
vn 0.01462 0.00021 -0.99989
vn 0.01462 0.00021 -0.99989
vn 0.01462 0.00021 -0.99989
vn 0.01462 0.00021 -0.99989
vn 0.01462 0.00021 -0.99989
vn 0.01462 0.00021 -0.99989
vn 0.01462 0.00021 -0.99989
vn 0.01462 0.00021 -0.99989
vn 0.01462 0.00021 -0.99989
vn 0.01462 0.00021 -0.99989
vn 0.01462 0.00021 -0.99989
vn 0.01462 0.00021 -0.99989
vn 0.01462 0.00021 -0.99989
vn 0.01462 0.00021 -0.99989
vn 0.01462 0.00021 -0.99989
vn 0.01462 0.00021 -0.99989
vn 0.01462 0.00021 -0.99989
vn 0.01462 0.00021 -0.99989
vn 0.01462 0.00021 -0.99989
vn 0.01462 0.00021 -0.99989
vn 0.01462 0.00021 -0.99989
vn 0.01462 0.00021 -0.99989
vn 0.01462 0.00021 -0.99989
vn 0.01462 0.00021 -0.99989
vn 0.01462 0.00021 -0.99989
vn 0.01462 0.00021 -0.99989
vn 0.01462 0.00021 -0.99989
vn 0.01462 0.00021 -0.99989
vn -0.01462 -0.00021 0.99989
vn -0.01462 -0.00021 0.99989
vn -0.01462 -0.00021 0.99989
vn -0.01462 -0.00021 0.99989
vn -0.01462 -0.00021 0.99989
vn -0.01462 -0.00021 0.99989
vn -0.01462 -0.00021 0.99989
vn -0.01462 -0.00021 0.99989
vn -0.01462 -0.00021 0.99989
vn -0.01462 -0.00021 0.99989
vn -0.01462 -0.00021 0.99989
vn -0.01462 -0.00021 0.99989
vn -0.01462 -0.00021 0.99989
vn -0.01462 -0.00021 0.99989
vn -0.01462 -0.00021 0.99989
vn -0.01462 -0.00021 0.99989
vn -0.01462 -0.00021 0.99989
vn -0.01462 -0.00021 0.99989
vn -0.01462 -0.00021 0.99989
vn -0.01462 -0.00021 0.99989
vn -0.01462 -0.00021 0.99989
vn -0.01462 -0.00021 0.99989
vn -0.01462 -0.00021 0.99989
vn -0.01462 -0.00021 0.99989
vn -0.01462 -0.00021 0.99989
vn -0.01462 -0.00021 0.99989
vn -0.01462 -0.00021 0.99989
vn -0.01462 -0.00021 0.99989
vn -0.01462 -0.00021 0.99989
vn -0.01462 -0.00021 0.99989
f 2//2 3//3 4//4 1//1 
f 5//6 6//7 3//8 2//5 
f 7//10 8//11 6//12 5//9 
f 9//14 10//15 8//16 7//13 
f 11//18 12//19 10//20 9//17 
f 13//22 14//23 12//24 11//21 
f 15//26 16//27 14//28 13//25 
f 17//30 18//31 16//32 15//29 
f 19//34 20//35 18//36 17//33 
f 1//38 4//39 20//40 19//37 
f 2//41 1//42 21//43 
f 5//44 2//45 21//46 
f 7//47 5//48 21//49 
f 9//50 7//51 21//52 
f 11//53 9//54 21//55 
f 13//56 11//57 21//58 
f 15//59 13//60 21//61 
f 17//62 15//63 21//64 
f 19//65 17//66 21//67 
f 1//68 19//69 21//70 
f 22//71 4//72 3//73 
f 22//74 3//75 6//76 
f 22//77 6//78 8//79 
f 22//80 8//81 10//82 
f 22//83 10//84 12//85 
f 22//86 12//87 14//88 
f 22//89 14//90 16//91 
f 22//92 16//93 18//94 
f 22//95 18//96 20//97 
f 22//98 20//99 4//100 
o 001_Cylinder_-_baked
g Cylinder_-_baked
usemtl Cylinder material_ea913ff9-1938-4e83-b5c7-7460aaac4381
v -85.311 54.500 -5.755
v -96.114 51.010 -5.654
v -95.976 51.207 15.950
v -85.172 54.696 15.849
v -102.790 41.873 -5.528
v -102.652 42.070 16.076
v -102.789 30.580 -5.425
v -102.651 30.777 16.179
v -96.112 21.443 -5.384
v -95.974 21.640 16.219
v -85.309 17.954 -5.421
v -85.170 18.151 16.182
v -74.506 21.443 -5.522
v -74.367 21.640 16.081
v -67.829 30.580 -5.648
v -67.691 30.777 15.955
v -67.830 41.873 -5.751
v -67.692 42.070 15.852
v -74.507 51.010 -5.792
v -74.369 51.207 15.811
v -85.310 36.227 -5.588
v -85.171 36.424 16.015
vn -0.00006 0.99996 -0.00911
vn -0.58559 0.81060 -0.00364
vn -0.58559 0.81060 -0.00364
vn -0.00006 0.99996 -0.00911
vn -0.58559 0.81060 -0.00364
vn -0.95053 0.31063 0.00325
vn -0.95053 0.31063 0.00325
vn -0.58559 0.81060 -0.00364
vn -0.95053 0.31063 0.00325
vn -0.95049 -0.31063 0.00892
vn -0.95049 -0.31063 0.00892
vn -0.95053 0.31063 0.00325
vn -0.95049 -0.31063 0.00892
vn -0.58549 -0.81060 0.01114
vn -0.58549 -0.81060 0.01114
vn -0.95049 -0.31063 0.00892
vn -0.58549 -0.81060 0.01114
vn 0.00006 -0.99996 0.00911
vn 0.00006 -0.99996 0.00911
vn -0.58549 -0.81060 0.01114
vn 0.00006 -0.99996 0.00911
vn 0.58559 -0.81060 0.00364
vn 0.58559 -0.81060 0.00364
vn 0.00006 -0.99996 0.00911
vn 0.58559 -0.81060 0.00364
vn 0.95053 -0.31063 -0.00325
vn 0.95053 -0.31063 -0.00325
vn 0.58559 -0.81060 0.00364
vn 0.95053 -0.31063 -0.00325
vn 0.95049 0.31063 -0.00892
vn 0.95049 0.31063 -0.00892
vn 0.95053 -0.31063 -0.00325
vn 0.95049 0.31063 -0.00892
vn 0.58549 0.81060 -0.01114
vn 0.58549 0.81060 -0.01114
vn 0.95049 0.31063 -0.00892
vn 0.58549 0.81060 -0.01114
vn -0.00006 0.99996 -0.00911
vn -0.00006 0.99996 -0.00911
vn 0.58549 0.81060 -0.01114
vn -0.00640 -0.00911 -0.99994
vn -0.00640 -0.00911 -0.99994
vn -0.00640 -0.00911 -0.99994
vn -0.00640 -0.00911 -0.99994
vn -0.00640 -0.00911 -0.99994
vn -0.00640 -0.00911 -0.99994
vn -0.00640 -0.00911 -0.99994
vn -0.00640 -0.00911 -0.99994
vn -0.00640 -0.00911 -0.99994
vn -0.00640 -0.00911 -0.99994
vn -0.00640 -0.00911 -0.99994
vn -0.00640 -0.00911 -0.99994
vn -0.00640 -0.00911 -0.99994
vn -0.00640 -0.00911 -0.99994
vn -0.00640 -0.00911 -0.99994
vn -0.00640 -0.00911 -0.99994
vn -0.00640 -0.00911 -0.99994
vn -0.00640 -0.00911 -0.99994
vn -0.00640 -0.00911 -0.99994
vn -0.00640 -0.00911 -0.99994
vn -0.00640 -0.00911 -0.99994
vn -0.00640 -0.00911 -0.99994
vn -0.00640 -0.00911 -0.99994
vn -0.00640 -0.00911 -0.99994
vn -0.00640 -0.00911 -0.99994
vn -0.00640 -0.00911 -0.99994
vn -0.00640 -0.00911 -0.99994
vn -0.00640 -0.00911 -0.99994
vn -0.00640 -0.00911 -0.99994
vn -0.00640 -0.00911 -0.99994
vn 0.00640 0.00911 0.99994
vn 0.00640 0.00911 0.99994
vn 0.00640 0.00911 0.99994
vn 0.00640 0.00911 0.99994
vn 0.00640 0.00911 0.99994
vn 0.00640 0.00911 0.99994
vn 0.00640 0.00911 0.99994
vn 0.00640 0.00911 0.99994
vn 0.00640 0.00911 0.99994
vn 0.00640 0.00911 0.99994
vn 0.00640 0.00911 0.99994
vn 0.00640 0.00911 0.99994
vn 0.00640 0.00911 0.99994
vn 0.00640 0.00911 0.99994
vn 0.00640 0.00911 0.99994
vn 0.00640 0.00911 0.99994
vn 0.00640 0.00911 0.99994
vn 0.00640 0.00911 0.99994
vn 0.00640 0.00911 0.99994
vn 0.00640 0.00911 0.99994
vn 0.00640 0.00911 0.99994
vn 0.00640 0.00911 0.99994
vn 0.00640 0.00911 0.99994
vn 0.00640 0.00911 0.99994
vn 0.00640 0.00911 0.99994
vn 0.00640 0.00911 0.99994
vn 0.00640 0.00911 0.99994
vn 0.00640 0.00911 0.99994
vn 0.00640 0.00911 0.99994
vn 0.00640 0.00911 0.99994
f 24//102 25//103 26//104 23//101 
f 27//106 28//107 25//108 24//105 
f 29//110 30//111 28//112 27//109 
f 31//114 32//115 30//116 29//113 
f 33//118 34//119 32//120 31//117 
f 35//122 36//123 34//124 33//121 
f 37//126 38//127 36//128 35//125 
f 39//130 40//131 38//132 37//129 
f 41//134 42//135 40//136 39//133 
f 23//138 26//139 42//140 41//137 
f 24//141 23//142 43//143 
f 27//144 24//145 43//146 
f 29//147 27//148 43//149 
f 31//150 29//151 43//152 
f 33//153 31//154 43//155 
f 35//156 33//157 43//158 
f 37//159 35//160 43//161 
f 39//162 37//163 43//164 
f 41//165 39//166 43//167 
f 23//168 41//169 43//170 
f 44//171 26//172 25//173 
f 44//174 25//175 28//176 
f 44//177 28//178 30//179 
f 44//180 30//181 32//182 
f 44//183 32//184 34//185 
f 44//186 34//187 36//188 
f 44//189 36//190 38//191 
f 44//192 38//193 40//194 
f 44//195 40//196 42//197 
f 44//198 42//199 26//200 
o 002_Box_2_-_baked
g Box_2_-_baked
usemtl Box material 2_f3fa2ef6-2f75-4bd3-be25-815727b22613
v -42.990 13.886 -7.061
v -89.345 13.886 -7.061
v -42.990 13.886 -8.350
v -89.345 13.886 -8.350
v -135.700 13.886 -7.061
v -135.700 13.886 -8.350
v -42.990 13.886 -5.773
v -89.345 13.886 -5.773
v -135.700 13.886 -5.773
v -135.700 33.525 -5.773
v -135.700 33.525 -7.061
v -135.700 33.525 -8.350
v -135.700 53.163 -5.773
v -135.700 53.163 -7.061
v -135.700 53.163 -8.350
v -89.345 33.525 -8.350
v -42.990 33.525 -8.350
v -89.345 53.163 -8.350
v -42.990 53.163 -8.350
v -42.990 33.525 -5.773
v -89.345 33.525 -5.773
v -42.990 53.163 -5.773
v -89.345 53.163 -5.773
v -42.990 33.525 -7.061
v -42.990 53.163 -7.061
v -89.345 53.163 -7.061
vn 0.00000 -1.00000 -0.00000
vn 0.00000 -1.00000 -0.00000
vn 0.00000 -1.00000 -0.00000
vn 0.00000 -1.00000 -0.00000
vn 0.00000 -1.00000 -0.00000
vn 0.00000 -1.00000 -0.00000
vn 0.00000 -1.00000 -0.00000
vn 0.00000 -1.00000 -0.00000
vn 0.00000 -1.00000 -0.00000
vn 0.00000 -1.00000 -0.00000
vn 0.00000 -1.00000 -0.00000
vn 0.00000 -1.00000 -0.00000
vn 0.00000 -1.00000 -0.00000
vn 0.00000 -1.00000 -0.00000
vn 0.00000 -1.00000 -0.00000
vn 0.00000 -1.00000 -0.00000
vn -1.00000 0.00000 0.00000
vn -1.00000 0.00000 0.00000
vn -1.00000 0.00000 0.00000
vn -1.00000 0.00000 0.00000
vn -1.00000 0.00000 0.00000
vn -1.00000 0.00000 0.00000
vn -1.00000 0.00000 0.00000
vn -1.00000 0.00000 0.00000
vn -1.00000 0.00000 0.00000
vn -1.00000 0.00000 0.00000
vn -1.00000 0.00000 0.00000
vn -1.00000 0.00000 0.00000
vn -1.00000 0.00000 0.00000
vn -1.00000 0.00000 0.00000
vn -1.00000 0.00000 0.00000
vn -1.00000 0.00000 0.00000
vn 0.00000 0.00000 -1.00000
vn 0.00000 0.00000 -1.00000
vn 0.00000 0.00000 -1.00000
vn 0.00000 0.00000 -1.00000
vn 0.00000 0.00000 -1.00000
vn 0.00000 0.00000 -1.00000
vn 0.00000 0.00000 -1.00000
vn 0.00000 0.00000 -1.00000
vn 0.00000 0.00000 -1.00000
vn 0.00000 0.00000 -1.00000
vn 0.00000 0.00000 -1.00000
vn 0.00000 0.00000 -1.00000
vn 0.00000 0.00000 -1.00000
vn 0.00000 0.00000 -1.00000
vn 0.00000 0.00000 -1.00000
vn 0.00000 0.00000 -1.00000
vn 0.00000 -0.00000 1.00000
vn 0.00000 -0.00000 1.00000
vn 0.00000 -0.00000 1.00000
vn 0.00000 -0.00000 1.00000
vn 0.00000 -0.00000 1.00000
vn 0.00000 -0.00000 1.00000
vn 0.00000 -0.00000 1.00000
vn 0.00000 -0.00000 1.00000
vn 0.00000 -0.00000 1.00000
vn 0.00000 -0.00000 1.00000
vn 0.00000 -0.00000 1.00000
vn 0.00000 -0.00000 1.00000
vn 0.00000 -0.00000 1.00000
vn 0.00000 -0.00000 1.00000
vn 0.00000 -0.00000 1.00000
vn 0.00000 -0.00000 1.00000
vn 1.00000 0.00000 0.00000
vn 1.00000 0.00000 0.00000
vn 1.00000 0.00000 0.00000
vn 1.00000 0.00000 0.00000
vn 1.00000 0.00000 0.00000
vn 1.00000 0.00000 0.00000
vn 1.00000 0.00000 0.00000
vn 1.00000 0.00000 0.00000
vn 1.00000 0.00000 0.00000
vn 1.00000 0.00000 0.00000
vn 1.00000 0.00000 0.00000
vn 1.00000 0.00000 0.00000
vn 1.00000 0.00000 0.00000
vn 1.00000 0.00000 0.00000
vn 1.00000 0.00000 0.00000
vn 1.00000 0.00000 0.00000
vn 0.00000 1.00000 0.00000
vn 0.00000 1.00000 0.00000
vn 0.00000 1.00000 0.00000
vn 0.00000 1.00000 0.00000
vn 0.00000 1.00000 0.00000
vn 0.00000 1.00000 0.00000
vn 0.00000 1.00000 0.00000
vn 0.00000 1.00000 0.00000
vn 0.00000 1.00000 0.00000
vn 0.00000 1.00000 0.00000
vn 0.00000 1.00000 0.00000
vn 0.00000 1.00000 0.00000
vn 0.00000 1.00000 0.00000
vn 0.00000 1.00000 0.00000
vn 0.00000 1.00000 0.00000
vn 0.00000 1.00000 0.00000
f 46//202 48//204 47//203 45//201 
f 49//206 50//208 48//207 46//205 
f 52//210 46//212 45//211 51//209 
f 53//214 49//216 46//215 52//213 
f 55//218 49//220 53//219 54//217 
f 56//222 50//224 49//223 55//221 
f 58//226 55//228 54//227 57//225 
f 59//230 56//232 55//231 58//229 
f 60//234 48//236 50//235 56//233 
f 61//238 47//240 48//239 60//237 
f 62//242 60//244 56//243 59//241 
f 63//246 61//248 60//247 62//245 
f 65//250 52//252 51//251 64//249 
f 54//254 53//256 52//255 65//253 
f 67//258 65//260 64//259 66//257 
f 57//262 54//264 65//263 67//261 
f 68//266 45//268 47//267 61//265 
f 64//270 51//272 45//271 68//269 
f 69//274 68//276 61//275 63//273 
f 66//278 64//280 68//279 69//277 
f 70//282 62//284 59//283 58//281 
f 69//286 63//288 62//287 70//285 
f 67//290 70//292 58//291 57//289 
f 66//294 69//296 70//295 67//293 
o 003_Box_1_-_baked
g Box_1_-_baked
usemtl Box material 1_ceb49437-a111-49f2-97a2-0024d93890eb
v -116.764 60.509 -13.864
v -122.783 60.509 -22.733
v -116.368 60.509 -22.437
v -123.179 60.509 -14.160
v -129.198 60.509 -23.029
v -129.594 60.509 -14.456
v -122.388 60.509 -31.306
v -115.972 60.509 -31.010
v -128.803 60.509 -31.602
v -129.198 66.050 -23.029
v -128.803 66.050 -31.602
v -129.594 66.050 -14.456
v -129.198 71.591 -23.029
v -128.803 71.591 -31.602
v -129.594 71.591 -14.456
v -123.179 66.050 -14.160
v -116.764 66.050 -13.864
v -123.179 71.591 -14.160
v -116.764 71.591 -13.864
v -122.388 66.050 -31.306
v -115.972 66.050 -31.010
v -122.388 71.591 -31.306
v -115.972 71.591 -31.010
v -116.368 66.050 -22.437
v -116.368 71.591 -22.437
v -122.783 71.591 -22.733
vn 0.00000 -1.00000 -0.00000
vn 0.00000 -1.00000 -0.00000
vn 0.00000 -1.00000 -0.00000
vn 0.00000 -1.00000 -0.00000
vn 0.00000 -1.00000 -0.00000
vn 0.00000 -1.00000 -0.00000
vn 0.00000 -1.00000 -0.00000
vn 0.00000 -1.00000 -0.00000
vn 0.00000 -1.00000 -0.00000
vn 0.00000 -1.00000 -0.00000
vn 0.00000 -1.00000 -0.00000
vn 0.00000 -1.00000 -0.00000
vn 0.00000 -1.00000 -0.00000
vn 0.00000 -1.00000 -0.00000
vn 0.00000 -1.00000 -0.00000
vn 0.00000 -1.00000 -0.00000
vn -0.99894 0.00000 -0.04610
vn -0.99894 0.00000 -0.04610
vn -0.99894 0.00000 -0.04610
vn -0.99894 0.00000 -0.04610
vn -0.99894 0.00000 -0.04610
vn -0.99894 0.00000 -0.04610
vn -0.99894 0.00000 -0.04610
vn -0.99894 0.00000 -0.04610
vn -0.99894 0.00000 -0.04610
vn -0.99894 0.00000 -0.04610
vn -0.99894 0.00000 -0.04610
vn -0.99894 0.00000 -0.04610
vn -0.99894 0.00000 -0.04610
vn -0.99894 0.00000 -0.04610
vn -0.99894 0.00000 -0.04610
vn -0.99894 0.00000 -0.04610
vn -0.04610 -0.00000 0.99894
vn -0.04610 -0.00000 0.99894
vn -0.04610 -0.00000 0.99894
vn -0.04610 -0.00000 0.99894
vn -0.04610 -0.00000 0.99894
vn -0.04610 -0.00000 0.99894
vn -0.04610 -0.00000 0.99894
vn -0.04610 -0.00000 0.99894
vn -0.04610 -0.00000 0.99894
vn -0.04610 -0.00000 0.99894
vn -0.04610 -0.00000 0.99894
vn -0.04610 -0.00000 0.99894
vn -0.04610 -0.00000 0.99894
vn -0.04610 -0.00000 0.99894
vn -0.04610 -0.00000 0.99894
vn -0.04610 -0.00000 0.99894
vn 0.04610 0.00000 -0.99894
vn 0.04610 0.00000 -0.99894
vn 0.04610 0.00000 -0.99894
vn 0.04610 0.00000 -0.99894
vn 0.04610 0.00000 -0.99894
vn 0.04610 0.00000 -0.99894
vn 0.04610 0.00000 -0.99894
vn 0.04610 0.00000 -0.99894
vn 0.04610 0.00000 -0.99894
vn 0.04610 0.00000 -0.99894
vn 0.04610 0.00000 -0.99894
vn 0.04610 0.00000 -0.99894
vn 0.04610 0.00000 -0.99894
vn 0.04610 0.00000 -0.99894
vn 0.04610 0.00000 -0.99894
vn 0.04610 0.00000 -0.99894
vn 0.99894 -0.00000 0.04610
vn 0.99894 -0.00000 0.04610
vn 0.99894 -0.00000 0.04610
vn 0.99894 -0.00000 0.04610
vn 0.99894 -0.00000 0.04610
vn 0.99894 -0.00000 0.04610
vn 0.99894 -0.00000 0.04610
vn 0.99894 -0.00000 0.04610
vn 0.99894 -0.00000 0.04610
vn 0.99894 -0.00000 0.04610
vn 0.99894 -0.00000 0.04610
vn 0.99894 -0.00000 0.04610
vn 0.99894 -0.00000 0.04610
vn 0.99894 -0.00000 0.04610
vn 0.99894 -0.00000 0.04610
vn 0.99894 -0.00000 0.04610
vn -0.00000 1.00000 0.00000
vn -0.00000 1.00000 0.00000
vn -0.00000 1.00000 0.00000
vn -0.00000 1.00000 0.00000
vn -0.00000 1.00000 0.00000
vn -0.00000 1.00000 0.00000
vn -0.00000 1.00000 0.00000
vn -0.00000 1.00000 0.00000
vn -0.00000 1.00000 0.00000
vn -0.00000 1.00000 0.00000
vn -0.00000 1.00000 0.00000
vn -0.00000 1.00000 0.00000
vn -0.00000 1.00000 0.00000
vn -0.00000 1.00000 0.00000
vn -0.00000 1.00000 0.00000
vn -0.00000 1.00000 0.00000
f 73//299 71//297 74//300 72//298 
f 72//303 74//301 76//304 75//302 
f 78//307 73//305 72//308 77//306 
f 77//311 72//309 75//312 79//310 
f 81//315 79//313 75//316 80//314 
f 80//319 75//317 76//320 82//318 
f 84//323 81//321 80//324 83//322 
f 83//327 80//325 82//328 85//326 
f 82//331 76//329 74//332 86//330 
f 86//335 74//333 71//336 87//334 
f 85//339 82//337 86//340 88//338 
f 88//343 86//341 87//344 89//342 
f 91//347 78//345 77//348 90//346 
f 90//351 77//349 79//352 81//350 
f 93//355 91//353 90//356 92//354 
f 92//359 90//357 81//360 84//358 
f 87//363 71//361 73//364 94//362 
f 94//367 73//365 78//368 91//366 
f 89//371 87//369 94//372 95//370 
f 95//375 94//373 91//376 93//374 
f 83//379 85//377 88//380 96//378 
f 96//383 88//381 89//384 95//382 
f 84//387 83//385 96//388 92//386 
f 92//391 96//389 95//392 93//390 
o 004_Box_-_baked
g Box_-_baked
usemtl Box material_700507cb-8790-48d6-bef9-930cfa626933
v -40.886 -4.289 -9.418
v -88.850 -4.289 -23.281
v -40.886 -4.289 -23.281
v -88.850 -4.289 -9.418
v -136.814 -4.289 -23.281
v -136.814 -4.289 -9.418
v -88.850 -4.289 -37.144
v -40.886 -4.289 -37.144
v -136.814 -4.289 -37.144
v -136.814 29.259 -23.281
v -136.814 29.259 -37.144
v -136.814 29.259 -9.418
v -136.814 62.806 -23.281
v -136.814 62.806 -37.144
v -136.814 62.806 -9.418
v -88.850 29.259 -9.418
v -40.886 29.259 -9.418
v -88.850 62.806 -9.418
v -40.886 62.806 -9.418
v -88.850 29.259 -37.144
v -40.886 29.259 -37.144
v -88.850 62.806 -37.144
v -40.886 62.806 -37.144
v -40.886 29.259 -23.281
v -40.886 62.806 -23.281
v -88.850 62.806 -23.281
vn 0.00000 -1.00000 -0.00000
vn 0.00000 -1.00000 -0.00000
vn 0.00000 -1.00000 -0.00000
vn 0.00000 -1.00000 -0.00000
vn 0.00000 -1.00000 -0.00000
vn 0.00000 -1.00000 -0.00000
vn 0.00000 -1.00000 -0.00000
vn 0.00000 -1.00000 -0.00000
vn 0.00000 -1.00000 -0.00000
vn 0.00000 -1.00000 -0.00000
vn 0.00000 -1.00000 -0.00000
vn 0.00000 -1.00000 -0.00000
vn 0.00000 -1.00000 -0.00000
vn 0.00000 -1.00000 -0.00000
vn 0.00000 -1.00000 -0.00000
vn 0.00000 -1.00000 -0.00000
vn -1.00000 0.00000 0.00000
vn -1.00000 0.00000 0.00000
vn -1.00000 0.00000 0.00000
vn -1.00000 0.00000 0.00000
vn -1.00000 0.00000 0.00000
vn -1.00000 0.00000 0.00000
vn -1.00000 0.00000 0.00000
vn -1.00000 0.00000 0.00000
vn -1.00000 0.00000 0.00000
vn -1.00000 0.00000 0.00000
vn -1.00000 0.00000 0.00000
vn -1.00000 0.00000 0.00000
vn -1.00000 0.00000 0.00000
vn -1.00000 0.00000 0.00000
vn -1.00000 0.00000 0.00000
vn -1.00000 0.00000 0.00000
vn 0.00000 -0.00000 1.00000
vn 0.00000 -0.00000 1.00000
vn 0.00000 -0.00000 1.00000
vn 0.00000 -0.00000 1.00000
vn 0.00000 -0.00000 1.00000
vn 0.00000 -0.00000 1.00000
vn 0.00000 -0.00000 1.00000
vn 0.00000 -0.00000 1.00000
vn 0.00000 -0.00000 1.00000
vn 0.00000 -0.00000 1.00000
vn 0.00000 -0.00000 1.00000
vn 0.00000 -0.00000 1.00000
vn 0.00000 -0.00000 1.00000
vn 0.00000 -0.00000 1.00000
vn 0.00000 -0.00000 1.00000
vn 0.00000 -0.00000 1.00000
vn 0.00000 0.00000 -1.00000
vn 0.00000 0.00000 -1.00000
vn 0.00000 0.00000 -1.00000
vn 0.00000 0.00000 -1.00000
vn 0.00000 0.00000 -1.00000
vn 0.00000 0.00000 -1.00000
vn 0.00000 0.00000 -1.00000
vn 0.00000 0.00000 -1.00000
vn 0.00000 0.00000 -1.00000
vn 0.00000 0.00000 -1.00000
vn 0.00000 0.00000 -1.00000
vn 0.00000 0.00000 -1.00000
vn 0.00000 0.00000 -1.00000
vn 0.00000 0.00000 -1.00000
vn 0.00000 0.00000 -1.00000
vn 0.00000 0.00000 -1.00000
vn 1.00000 0.00000 0.00000
vn 1.00000 0.00000 0.00000
vn 1.00000 0.00000 0.00000
vn 1.00000 0.00000 0.00000
vn 1.00000 0.00000 0.00000
vn 1.00000 0.00000 0.00000
vn 1.00000 0.00000 0.00000
vn 1.00000 0.00000 0.00000
vn 1.00000 0.00000 0.00000
vn 1.00000 0.00000 0.00000
vn 1.00000 0.00000 0.00000
vn 1.00000 0.00000 0.00000
vn 1.00000 0.00000 0.00000
vn 1.00000 0.00000 0.00000
vn 1.00000 0.00000 0.00000
vn 1.00000 0.00000 0.00000
vn 0.00000 1.00000 0.00000
vn 0.00000 1.00000 0.00000
vn 0.00000 1.00000 0.00000
vn 0.00000 1.00000 0.00000
vn 0.00000 1.00000 0.00000
vn 0.00000 1.00000 0.00000
vn 0.00000 1.00000 0.00000
vn 0.00000 1.00000 0.00000
vn 0.00000 1.00000 0.00000
vn 0.00000 1.00000 0.00000
vn 0.00000 1.00000 0.00000
vn 0.00000 1.00000 0.00000
vn 0.00000 1.00000 0.00000
vn 0.00000 1.00000 0.00000
vn 0.00000 1.00000 0.00000
vn 0.00000 1.00000 0.00000
f 99//395 97//393 100//396 98//394 
f 98//399 100//397 102//400 101//398 
f 104//403 99//401 98//404 103//402 
f 103//407 98//405 101//408 105//406 
f 107//411 105//409 101//412 106//410 
f 106//415 101//413 102//416 108//414 
f 110//419 107//417 106//420 109//418 
f 109//423 106//421 108//424 111//422 
f 108//427 102//425 100//428 112//426 
f 112//431 100//429 97//432 113//430 
f 111//435 108//433 112//436 114//434 
f 114//439 112//437 113//440 115//438 
f 117//443 104//441 103//444 116//442 
f 116//447 103//445 105//448 107//446 
f 119//451 117//449 116//452 118//450 
f 118//455 116//453 107//456 110//454 
f 113//459 97//457 99//460 120//458 
f 120//463 99//461 104//464 117//462 
f 115//467 113//465 120//468 121//466 
f 121//471 120//469 117//472 119//470 
f 109//475 111//473 114//476 122//474 
f 122//479 114//477 115//480 121//478 
f 110//483 109//481 122//484 118//482 
f 118//487 122//485 121//488 119//486 
